<svg xmlns="http://www.w3.org/2000/svg" width="130.017" height="68.35" viewBox="0 0 130.017 68.35"><g transform="translate(-149 -5636.545)"><g transform="translate(149 5636.545)"><path d="M241.071,271.042H232.43a.631.631,0,0,1-.63-.631V256.743a.468.468,0,0,0-.468-.467h-.043a.468.468,0,0,0-.467.467v13.88a1.422,1.422,0,0,0,1.42,1.42h8.83a.468.468,0,0,0,.467-.468v-.065a.467.467,0,0,0-.467-.468" transform="translate(-187.722 -203.693)" fill="#fff"/><path d="M198.285,264.152l0-.013-.138-.12a1.441,1.441,0,0,0-.936-.353h-6.175a.513.513,0,0,0-.487.532.5.5,0,0,0,.5.471h6.164a.412.412,0,0,1,.293.122.418.418,0,0,1,.123.3.49.49,0,0,1-.009.1,6.289,6.289,0,0,1-.19.864,6.875,6.875,0,0,1-12.886.926,6.609,6.609,0,0,1-.6-2.608c0-.052-.005-.1-.006-.156v-.114c0-.05,0-.1,0-.161a6.877,6.877,0,0,1,12.879-3.138.506.506,0,0,0,.652.236l.068-.034a.5.5,0,0,0,.18-.64,2.361,2.361,0,0,0-.128-.222,7.876,7.876,0,0,0-14.648,3.769c-.007.086-.012.172-.01.252s0,.167.005.237a7.881,7.881,0,0,0,15.67.936c0-.035.007-.067.016-.126,0-.036,0-.076,0-.127a1.393,1.393,0,0,0-.279-.854c-.022-.029-.046-.058-.072-.085" transform="translate(-157.678 -203.701)" fill="#fff"/><path d="M398.582,271.042h-8.641a.631.631,0,0,1-.631-.631V256.743a.468.468,0,0,0-.468-.467H388.8a.468.468,0,0,0-.468.467v13.88a1.422,1.422,0,0,0,1.42,1.42h8.829a.468.468,0,0,0,.468-.468v-.065a.468.468,0,0,0-.468-.468" transform="translate(-286.554 -203.693)" fill="#fff"/><path d="M264.386,256.278a7.883,7.883,0,1,0,7.883,7.883,7.892,7.892,0,0,0-7.883-7.883m6.937,7.883a6.937,6.937,0,1,1-6.937-6.937,6.945,6.945,0,0,1,6.937,6.937" transform="translate(-203.836 -203.695)" fill="#fff"/><path d="M356.211,270.881h0c-.893-3.125-3.01-10.517-3.389-11.645-.8-2.374-2.258-3.577-4.348-3.577s-3.553,1.2-4.347,3.577c-.452,1.346-3.4,11.7-3.433,11.8a.486.486,0,0,0,.333.6.493.493,0,0,0,.136.019.481.481,0,0,0,.465-.354c.013-.049.762-2.671,1.567-5.466h10.557c.813,2.819,1.554,5.418,1.568,5.468a.486.486,0,0,0,.934-.267Zm-7.736-14.252c1.649,0,2.77.953,3.427,2.914.163.487.688,2.266,1.564,5.293h-9.981c.876-3.03,1.4-4.811,1.563-5.293.657-1.961,1.778-2.914,3.427-2.914" transform="translate(-256.651 -203.306)" fill="#fff"/><path d="M316.587,260.459a4.182,4.182,0,0,0-4.181-4.181h-6.973a1.359,1.359,0,0,0-.8.283,1.088,1.088,0,0,0-.225.222,1.321,1.321,0,0,0-.291.829v13.094a1.313,1.313,0,0,0,.285.824,1.1,1.1,0,0,0,.22.221,1.3,1.3,0,0,0,.829.292h6.959a4.173,4.173,0,0,0,1.809-.412l.057-.011.031-.032a4.181,4.181,0,0,0,.248-7.316l-.2-.113a4.151,4.151,0,0,0,2.239-3.7m-11.529,3.229v-6.075a.389.389,0,0,1,.389-.389h6.959a3.235,3.235,0,0,1,.194,6.464Zm7.564.945a3.236,3.236,0,0,1-.216,6.465h-6.959a.391.391,0,0,1-.389-.392v-6.073h7.564Z" transform="translate(-233.709 -203.695)" fill="#fff"/><path d="M136.556,115.767c-12.215,0-21.427,9.295-21.427,21.621v.054A21.03,21.03,0,0,0,136.5,158.577a21.405,21.405,0,1,0,.053-42.81m.107,35.756c-7.88,0-13.821-6.169-13.821-14.35v-.054c0-8.017,6.047-14.3,13.768-14.3,8.551,0,13.661,7.324,13.661,14.4a13.812,13.812,0,0,1-13.607,14.3" transform="translate(-115.129 -115.529)" fill="#fff"/><path d="M273.4,146.831A3.751,3.751,0,0,1,272.8,150a21.293,21.293,0,0,1-17.412,8.642,21.03,21.03,0,0,1-21.374-21.136v-.054c0-12.326,9.212-21.621,21.427-21.621a21.333,21.333,0,0,1,16.938,8.079,3.778,3.778,0,0,1-1.131,5.625,3.827,3.827,0,0,1-1.866.489,3.719,3.719,0,0,1-3.023-1.539,13.048,13.048,0,0,0-10.864-5.6c-7.72,0-13.768,6.279-13.768,14.3v.054c0,8.181,5.942,14.35,13.821,14.35a13.163,13.163,0,0,0,11.042-5.885,3.842,3.842,0,0,1,3.176-1.7,3.715,3.715,0,0,1,1.561.343,3.772,3.772,0,0,1,2.08,2.489" transform="translate(-189.723 -115.57)" fill="#fff"/><path d="M385.251,153.43l-3.557-12.351-1.516-5.269-.931-3.235h0l-1.688-5.864-.042-.128c-.942-2.834-3.809-11.456-12.928-11.456s-11.987,8.625-12.929,11.46l-.054.164-7.681,26.678a3.635,3.635,0,0,0,.605,3.214,4.14,4.14,0,0,0,3.306,1.61,4.02,4.02,0,0,0,3.924-2.864l7.161-26.105.022-.071c.762-2.4,2.177-5.6,5.646-5.6s4.884,3.195,5.645,5.592l.013.041,4.046,14.774L377.4,155.39a4.025,4.025,0,0,0,3.926,2.866h.01a4.254,4.254,0,0,0,1.639-.335,4.015,4.015,0,0,0,1.669-1.277,3.633,3.633,0,0,0,.605-3.214" transform="translate(-258.601 -115.128)" fill="#fff"/><path d="M405.817,142.527l-8.669,7.177-6.595,5.461-7.2,5.96a1.481,1.481,0,0,1-1.778.021l-7.242-5.655-2.021,7.367,7.7,6.049a3.68,3.68,0,0,0,4.961-.53l6.959-8.191,6.152-7.245,8.336-9.814a.425.425,0,0,0-.6-.6" transform="translate(-276.501 -132.256)" fill="#de473c"/></g></g></svg>